<svg id="Capa_1" fill="url('#myGradient')" enable-background="new 0 0 512 512" height="512" viewBox="0 0 512 512" width="512" xmlns="http://www.w3.org/2000/svg">
<defs>
    <linearGradient id="myGradient" gradientTransform="rotate(90)">
      <stop offset="5%"  stop-color="#14185b" />
      <stop offset="95%" stop-color="#2a30ac" />
    </linearGradient>
  </defs>
<g><path d="m309 93.797h-238.5c-4.143 0-7.5 3.357-7.5 7.5s3.357 7.5 7.5 7.5h238.5c4.143 0 7.5-3.357 7.5-7.5s-3.357-7.5-7.5-7.5z"/><path d="m266.75 152.297c0-4.143-3.357-7.5-7.5-7.5h-188.75c-4.143 0-7.5 3.357-7.5 7.5s3.357 7.5 7.5 7.5h188.75c4.143 0 7.5-3.357 7.5-7.5z"/><path d="m449 229.297c4.143 0 7.5-3.357 7.5-7.5v-69.5c0-4.143-3.357-7.5-7.5-7.5h-99.5c-4.143 0-7.5 3.357-7.5 7.5v169.5c0 4.143 3.357 7.5 7.5 7.5h99.5c4.143 0 7.5-3.357 7.5-7.5v-65c0-4.143-3.357-7.5-7.5-7.5s-7.5 3.357-7.5 7.5v57.5h-84.5v-154.5h84.5v62c0 4.143 3.357 7.5 7.5 7.5z"/><path d="m209.5 329.297h99.5c4.143 0 7.5-3.357 7.5-7.5v-117.542c0-4.143-3.357-7.5-7.5-7.5h-99.5c-4.143 0-7.5 3.357-7.5 7.5v117.542c0 4.143 3.357 7.5 7.5 7.5zm7.5-117.542h84.5v102.542h-84.5z"/><path d="m70.5 247.755c-4.143 0-7.5 3.357-7.5 7.5v66.542c0 4.143 3.357 7.5 7.5 7.5h99.5c4.143 0 7.5-3.357 7.5-7.5v-66.542c0-4.143-3.357-7.5-7.5-7.5zm92 66.542h-84.5v-51.542h84.5z"/><path d="m494.5 5.373h-389.5c-4.143 0-7.5 3.357-7.5 7.5s3.357 7.5 7.5 7.5h389.5c1.379 0 2.5 1.121 2.5 2.5v19.924h-145c-4.143 0-7.5 3.357-7.5 7.5s3.357 7.5 7.5 7.5h145v296.076c0 1.379-1.121 2.5-2.5 2.5h-477c-1.379 0-2.5-1.121-2.5-2.5v-296.076h302c4.143 0 7.5-3.357 7.5-7.5s-3.357-7.5-7.5-7.5h-302v-19.924c0-1.379 1.121-2.5 2.5-2.5h52.5c4.143 0 7.5-3.357 7.5-7.5s-3.357-7.5-7.5-7.5h-52.5c-9.649 0-17.5 7.851-17.5 17.5v331c0 9.649 7.851 17.5 17.5 17.5h178.102l-21.041 33.085c-2.224 3.495-1.191 8.13 2.304 10.353 3.443 2.205 8.117 1.221 10.353-2.304l26.16-41.134h12.986l-72.427 117.231c-4.192 7.101-15.277.334-10.891-6.643l25.529-40.143c2.224-3.495 1.191-8.13-2.304-10.353-3.495-2.224-8.131-1.193-10.353 2.304l-25.565 40.199c-6.3 9.665-2.997 23.671 6.954 29.505 9.706 6.199 23.572 2.934 29.399-7l32.43-52.492h116.355l32.559 52.479c5.838 9.951 19.695 13.212 29.407 7.015 10.043-6.174 13.189-19.367 7.017-29.409-.021-.032-.041-.064-.062-.097l-65.25-102.597h175.338c9.649 0 17.5-7.851 17.5-17.5v-331c0-9.648-7.851-17.499-17.5-17.499zm-224.056 366 18.37 29.609h-63.111l18.293-29.609zm-62.039 57.61 8.032-13h81.684l8.065 13zm163.316 52.98c4.385 6.993-6.721 13.753-10.908 6.615l-72.716-117.205h13.292z"/></g></svg>