<svg id="Capa_1" fill="url('#myGradient')" enable-background="new 0 0 512 512" height="512" viewBox="0 0 512 512" width="512" xmlns="http://www.w3.org/2000/svg">
<defs>
    <linearGradient id="myGradient" gradientTransform="rotate(90)">
      <stop offset="5%"  stop-color="#14185b" />
      <stop offset="95%" stop-color="#2a30ac" />
    </linearGradient>
  </defs>
<g><path d="m479.5 379.5c-4.143 0-7.5 3.358-7.5 7.5v87.5c0 12.407-10.094 22.5-22.5 22.5h-254c-4.143 0-7.5 3.358-7.5 7.5s3.357 7.5 7.5 7.5h254c20.678 0 37.5-16.822 37.5-37.5v-87.5c0-4.142-3.357-7.5-7.5-7.5z"/><path d="m449.5 50h-32.5v-32.5c0-9.649-7.851-17.5-17.5-17.5h-30c-9.649 0-17.5 7.851-17.5 17.5v32.5h-192v-32.5c0-9.649-7.851-17.5-17.5-17.5h-30c-9.649 0-17.5 7.851-17.5 17.5v32.5h-32.5c-20.678 0-37.5 16.822-37.5 37.5v387c0 20.678 16.822 37.5 37.5 37.5h98c4.143 0 7.5-3.358 7.5-7.5s-3.357-7.5-7.5-7.5h-98c-12.406 0-22.5-10.093-22.5-22.5v-309.5h285.5c4.143 0 7.5-3.358 7.5-7.5s-3.357-7.5-7.5-7.5h-285.5v-62.5c0-12.407 10.094-22.5 22.5-22.5h32.5v32.5c0 9.649 7.851 17.5 17.5 17.5h30c9.649 0 17.5-7.851 17.5-17.5v-32.5h192v32.5c0 9.649 7.851 17.5 17.5 17.5h30c9.649 0 17.5-7.851 17.5-17.5v-32.5h32.5c12.406 0 22.5 10.093 22.5 22.5v62.5h-111.5c-4.143 0-7.5 3.358-7.5 7.5s3.357 7.5 7.5 7.5h111.5v187c0 4.142 3.357 7.5 7.5 7.5s7.5-3.358 7.5-7.5v-264.5c0-20.678-16.822-37.5-37.5-37.5zm-304.5 47.5c0 1.378-1.121 2.5-2.5 2.5h-30c-1.379 0-2.5-1.122-2.5-2.5v-80c0-1.378 1.121-2.5 2.5-2.5h30c1.379 0 2.5 1.122 2.5 2.5zm257 0c0 1.378-1.121 2.5-2.5 2.5h-30c-1.379 0-2.5-1.122-2.5-2.5v-80c0-1.378 1.121-2.5 2.5-2.5h30c1.379 0 2.5 1.122 2.5 2.5z"/><path d="m333.546 453.681h68.809c8.352 0 15.146-6.794 15.146-15.145v-68.809-76.454-68.809c0-8.351-6.794-15.145-15.146-15.145h-68.809-77.546-77.546-68.809c-8.352 0-15.146 6.794-15.146 15.145v68.809 76.454 68.809c0 8.351 6.794 15.145 15.146 15.145h68.809 77.546zm-224.046-152.908h61.454v61.454h-61.454zm76.454 0h62.546v61.454h-62.546zm216.546 61.454h-61.454v-61.454h61.454zm-76.454 0h-62.546v-61.454h62.546zm-62.546 15h62.546v61.454h-62.546zm139 61.309c0 .08-.065.145-.146.145h-61.309v-61.454h61.455zm0-214.072v61.309h-61.454v-61.454h61.309c.08 0 .145.065.145.145zm-76.454 61.309h-62.546v-61.454h62.546zm-77.546 0h-62.546v-61.454h62.546zm-139-61.309c0-.08.065-.145.146-.145h61.309v61.454h-61.455zm0 214.072v-61.309h61.454v61.454h-61.309c-.08 0-.145-.065-.145-.145zm76.454-61.309h62.546v61.454h-62.546z"/></g></svg>