<?xml version="1.0" encoding="iso-8859-1"?>
<!-- Generator: Adobe Illustrator 19.0.0, SVG Export Plug-In . SVG Version: 6.00 Build 0)  -->
<svg version="1.1" id="Layer_1" fill="#fff" xmlns="http://www.w3.org/2000/svg" xmlns:xlink="http://www.w3.org/1999/xlink" x="0px" y="0px"
	 viewBox="0 0 512 512" style="enable-background:new 0 0 512 512;" xml:space="preserve">
<g>
	<g>
		<path d="M498.777,349.494l-47.887-47.886c-17.575-17.572-46.198-17.543-63.808,0.065l-39.902,39.904
			c-13.148,13.145-34.569,13.118-47.75-0.066L170.462,212.542c-13.183-13.183-13.213-34.603-0.066-47.75l39.903-39.903
			c17.609-17.611,17.638-46.233,0.066-63.807l-47.887-47.886C153.968,4.686,142.655,0,130.617,0c-0.008,0-0.017,0-0.025,0
			c-12.042,0.007-23.364,4.702-31.882,13.22L42.899,69.031c-57.156,57.156-57.135,150.176,0.044,207.356l192.642,192.642
			c27.703,27.703,64.528,42.963,103.689,42.971c0.01,0,0.018,0,0.028,0c39.15,0,75.956-15.245,103.638-42.927l55.812-55.812
			c8.5-8.501,13.188-19.816,13.202-31.86C511.968,369.337,507.288,358.006,498.777,349.494z M114.658,29.166
			c4.262-4.262,9.924-6.611,15.946-6.614c0.004,0,0.008,0,0.012,0c6.012,0,11.664,2.34,15.913,6.591l47.886,47.886
			c8.781,8.779,8.75,23.096-0.066,31.912l-21.943,21.943L92.674,51.151L114.658,29.166z M426.992,453.125
			c-48.363,48.362-127.074,48.345-175.459-0.044L58.891,260.439c-48.387-48.386-48.407-127.098-0.044-175.46l17.88-17.881
			l79.734,79.733l-2.013,2.013c-21.938,21.94-21.91,57.669,0.066,79.645l128.968,128.968c21.98,21.977,57.706,22.003,79.645,0.066
			l2.013-2.013l79.733,79.733L426.992,453.125z M482.804,397.313l-21.985,21.985l-79.733-79.733l21.943-21.944
			c8.819-8.815,23.136-8.847,31.914-0.065l47.886,47.886C491.61,374.221,491.599,388.52,482.804,397.313z"/>
	</g>
</g>
<g>
</g>
<g>
</g>
<g>
</g>
<g>
</g>
<g>
</g>
<g>
</g>
<g>
</g>
<g>
</g>
<g>
</g>
<g>
</g>
<g>
</g>
<g>
</g>
<g>
</g>
<g>
</g>
<g>
</g>
</svg>
